<svg preserveAspectRatio="none" width="100%" height="100%" overflow="visible" style="display: block;" viewBox="0 0 65.3614 193.118" fill="none" xmlns="http://www.w3.org/2000/svg">
<path id="Vector 27" d="M31.026 3.73224L32.0261 2.00026L28.5621 0L27.562 1.73197L29.294 2.73211L31.026 3.73224ZM65.3614 189.339L50.6977 171.498L42.5786 193.118L65.3614 189.339ZM29.294 2.73211C27.562 1.73197 27.5616 1.7327 27.561 1.73369C27.5606 1.73438 27.5599 1.73564 27.5591 1.73702C27.5575 1.73979 27.5553 1.74363 27.5525 1.74855C27.5468 1.75839 27.5387 1.77253 27.5282 1.79092C27.5071 1.82772 27.4765 1.88155 27.4365 1.95208C27.3567 2.09315 27.2398 2.30104 27.0889 2.57309C26.7873 3.11718 26.3497 3.91803 25.801 4.95436C24.7035 7.02684 23.1605 10.0422 21.369 13.8301C17.7872 21.4033 13.2049 32.0792 9.20337 44.4935C1.22549 69.2444 -4.55823 101.253 4.89906 129.37L6.7947 128.732L8.69034 128.094C-0.352154 101.211 5.11377 70.2198 13.0105 45.7207C16.9463 33.51 21.4575 22.9985 24.9849 15.5403C26.748 11.8127 28.2635 8.85144 29.3359 6.82626C29.8721 5.81376 30.2973 5.03551 30.5872 4.5127C30.7321 4.25131 30.8432 4.05381 30.9174 3.92284C30.9544 3.85735 30.9823 3.80851 31.0005 3.77663C31.0096 3.76069 31.0163 3.74899 31.0206 3.74158C31.0227 3.73788 31.0242 3.73524 31.0251 3.73368C31.0256 3.7329 31.0258 3.73254 31.026 3.73215C31.0261 3.73206 31.026 3.73224 29.294 2.73211ZM6.7947 128.732L4.89906 129.37C15.7422 161.607 33.945 177.28 47.5483 184.764L48.5123 183.012L49.4764 181.26C36.6908 174.225 19.1924 159.317 8.69034 128.094L6.7947 128.732Z" fill="var(--stroke-0, #F8F4E7)"/>
</svg>
